<mxfile host="65bd71144e">
    <diagram id="bwhrKk_-2dSxfilchsy-" name="Page-1">
        <mxGraphModel dx="1754" dy="466" grid="0" gridSize="10" guides="1" tooltips="1" connect="1" arrows="1" fold="1" page="0" pageScale="1" pageWidth="850" pageHeight="1100" math="0" shadow="0">
            <root>
                <mxCell id="0"/>
                <mxCell id="1" parent="0"/>
                <mxCell id="49" value="" style="rounded=0;whiteSpace=wrap;html=1;" vertex="1" parent="1">
                    <mxGeometry x="-70" y="410" width="890" height="300" as="geometry"/>
                </mxCell>
                <mxCell id="9" value="" style="rounded=0;whiteSpace=wrap;html=1;movable=1;resizable=1;rotatable=1;deletable=1;editable=1;locked=0;connectable=1;dashed=1;strokeWidth=2;" vertex="1" parent="1">
                    <mxGeometry x="-30" y="450" width="760" height="210" as="geometry"/>
                </mxCell>
                <mxCell id="81" style="edgeStyle=none;html=1;exitX=1;exitY=0.5;exitDx=0;exitDy=0;entryX=0.5;entryY=1;entryDx=0;entryDy=0;" edge="1" parent="1" source="8" target="7">
                    <mxGeometry relative="1" as="geometry">
                        <Array as="points">
                            <mxPoint x="740" y="840"/>
                        </Array>
                    </mxGeometry>
                </mxCell>
                <mxCell id="8" value="" style="image;html=1;image=img/lib/clip_art/networking/Firewall_02_128x128.png" vertex="1" parent="1">
                    <mxGeometry x="515.99" y="790" width="120" height="100" as="geometry"/>
                </mxCell>
                <mxCell id="38" value="" style="group;movable=1;resizable=1;rotatable=1;deletable=1;editable=1;locked=0;connectable=1;" vertex="1" connectable="0" parent="1">
                    <mxGeometry x="475.01" y="472.5" width="220.98000000000002" height="150" as="geometry"/>
                </mxCell>
                <mxCell id="34" value="" style="rounded=0;whiteSpace=wrap;html=1;movable=1;resizable=1;rotatable=1;deletable=1;editable=1;locked=0;connectable=1;" vertex="1" parent="38">
                    <mxGeometry width="190" height="120" as="geometry"/>
                </mxCell>
                <mxCell id="12" value="" style="sketch=0;pointerEvents=1;shadow=0;dashed=0;html=1;strokeColor=none;fillColor=#505050;labelPosition=center;verticalLabelPosition=bottom;verticalAlign=top;outlineConnect=0;align=center;shape=mxgraph.office.servers.reverse_proxy;movable=1;resizable=1;rotatable=1;deletable=1;editable=1;locked=0;connectable=1;" vertex="1" parent="38">
                    <mxGeometry x="49.5" y="33.5" width="80.5" height="76.5" as="geometry"/>
                </mxCell>
                <mxCell id="36" value="&lt;font style=&quot;font-size: 15px;&quot;&gt;&lt;b&gt;Inverse proxy&lt;/b&gt;&lt;/font&gt;" style="text;html=1;align=center;verticalAlign=middle;resizable=1;points=[];autosize=1;strokeColor=none;fillColor=none;movable=1;rotatable=1;deletable=1;editable=1;locked=0;connectable=1;" vertex="1" parent="38">
                    <mxGeometry x="10" width="120" height="30" as="geometry"/>
                </mxCell>
                <mxCell id="37" value="" style="image;sketch=0;aspect=fixed;html=1;points=[];align=center;fontSize=12;image=img/lib/mscae/Docker.svg;movable=1;resizable=1;rotatable=1;deletable=1;editable=1;locked=0;connectable=1;" vertex="1" parent="38">
                    <mxGeometry x="160" y="-10" width="60.98" height="50" as="geometry"/>
                </mxCell>
                <mxCell id="7" value="" style="image;html=1;image=img/lib/clip_art/networking/Cloud_Server_Private_128x128.png;movable=1;resizable=1;rotatable=1;deletable=1;editable=1;locked=0;connectable=1;" vertex="1" parent="1">
                    <mxGeometry x="640.01" y="600" width="200" height="170" as="geometry"/>
                </mxCell>
                <mxCell id="47" style="edgeStyle=none;html=1;exitX=1;exitY=0.5;exitDx=0;exitDy=0;entryX=0;entryY=0.5;entryDx=0;entryDy=0;shape=link;dashed=1;" edge="1" parent="1" source="22" target="34">
                    <mxGeometry relative="1" as="geometry"/>
                </mxCell>
                <mxCell id="22" value="" style="rounded=0;whiteSpace=wrap;html=1;container=0;movable=1;resizable=1;rotatable=1;deletable=1;editable=1;locked=0;connectable=1;" vertex="1" parent="1">
                    <mxGeometry x="230.01" y="475" width="190" height="120" as="geometry"/>
                </mxCell>
                <mxCell id="25" value="" style="image;sketch=0;aspect=fixed;html=1;points=[];align=center;fontSize=12;image=img/lib/mscae/Docker.svg;container=0;movable=1;resizable=1;rotatable=1;deletable=1;editable=1;locked=0;connectable=1;" vertex="1" parent="1">
                    <mxGeometry x="390.01" y="575" width="60.98" height="50" as="geometry"/>
                </mxCell>
                <mxCell id="27" value="" style="shape=image;verticalLabelPosition=bottom;labelBackgroundColor=default;verticalAlign=top;aspect=fixed;imageAspect=0;image=https://upload.wikimedia.org/wikipedia/commons/2/2b/Node-red-icon.png;movable=1;resizable=1;rotatable=1;deletable=1;editable=1;locked=0;connectable=1;" vertex="1" parent="1">
                    <mxGeometry x="260.01" y="485" width="110" height="110" as="geometry"/>
                </mxCell>
                <mxCell id="40" value="" style="endArrow=none;dashed=1;html=1;entryX=1;entryY=0.5;entryDx=0;entryDy=0;movable=1;resizable=1;rotatable=1;deletable=1;editable=1;locked=0;connectable=1;exitX=0;exitY=0.5;exitDx=0;exitDy=0;shape=link;" edge="1" parent="1" source="22" target="20">
                    <mxGeometry width="50" height="50" relative="1" as="geometry">
                        <mxPoint x="310.01" y="467.5" as="sourcePoint"/>
                        <mxPoint x="730.01" y="387.5" as="targetPoint"/>
                    </mxGeometry>
                </mxCell>
                <mxCell id="20" value="" style="rounded=0;whiteSpace=wrap;html=1;movable=1;resizable=1;rotatable=1;deletable=1;editable=1;locked=0;connectable=1;" vertex="1" parent="1">
                    <mxGeometry x="-10" y="475" width="190" height="120" as="geometry"/>
                </mxCell>
                <mxCell id="17" value="" style="image;html=1;image=img/lib/clip_art/computers/Server_128x128.png;movable=1;resizable=1;rotatable=1;deletable=1;editable=1;locked=0;connectable=1;" vertex="1" parent="1">
                    <mxGeometry x="20" y="505" width="110" height="90" as="geometry"/>
                </mxCell>
                <mxCell id="18" value="&lt;font style=&quot;font-size: 15px;&quot;&gt;&lt;b&gt;MQTT Broker&lt;/b&gt;&lt;/font&gt;" style="text;html=1;align=center;verticalAlign=middle;resizable=1;points=[];autosize=1;strokeColor=none;fillColor=none;movable=1;rotatable=1;deletable=1;editable=1;locked=0;connectable=1;" vertex="1" parent="1">
                    <mxGeometry y="475" width="120" height="30" as="geometry"/>
                </mxCell>
                <mxCell id="10" value="" style="image;sketch=0;aspect=fixed;html=1;points=[];align=center;fontSize=12;image=img/lib/mscae/Docker.svg;movable=1;resizable=1;rotatable=1;deletable=1;editable=1;locked=0;connectable=1;" vertex="1" parent="1">
                    <mxGeometry x="150" y="575" width="60.98" height="50" as="geometry"/>
                </mxCell>
                <mxCell id="48" value="&lt;font style=&quot;font-size: 18px;&quot;&gt;&lt;b style=&quot;&quot;&gt;SERVIDOR&lt;/b&gt;&lt;/font&gt;" style="text;html=1;align=center;verticalAlign=middle;resizable=0;points=[];autosize=1;strokeColor=none;fillColor=none;" vertex="1" parent="1">
                    <mxGeometry x="480" y="670" width="120" height="40" as="geometry"/>
                </mxCell>
                <mxCell id="57" value="" style="group" vertex="1" connectable="0" parent="1">
                    <mxGeometry x="90" y="750" width="390" height="193.27999999999997" as="geometry"/>
                </mxCell>
                <mxCell id="43" value="" style="shape=image;verticalLabelPosition=bottom;labelBackgroundColor=default;verticalAlign=top;aspect=fixed;imageAspect=0;image=https://cf-assets.www.cloudflare.com/slt3lc6tev37/Ls9hAx2qixPMwKA7HF2Ei/bdc328bf105a7438bad97f1a86479a44/data-localization-suite-illustration.svg;flipV=0;flipH=0;" vertex="1" parent="57">
                    <mxGeometry width="341" height="193.28" as="geometry"/>
                </mxCell>
                <mxCell id="56" value="&lt;font style=&quot;font-size: 18px;&quot;&gt;&lt;b&gt;Servidores de cloudflare&lt;/b&gt;&lt;/font&gt;" style="text;html=1;align=center;verticalAlign=middle;resizable=0;points=[];autosize=1;strokeColor=none;fillColor=none;" vertex="1" parent="57">
                    <mxGeometry x="160" y="146.64" width="230" height="40" as="geometry"/>
                </mxCell>
                <mxCell id="63" value="" style="group;rotation=-225;strokeWidth=3;" vertex="1" connectable="0" parent="1">
                    <mxGeometry x="400" y="800" width="100" height="90" as="geometry"/>
                </mxCell>
                <mxCell id="58" value="" style="endArrow=classic;html=1;" edge="1" parent="63">
                    <mxGeometry width="50" height="50" relative="1" as="geometry">
                        <mxPoint x="32.5" y="22.5" as="sourcePoint"/>
                        <mxPoint x="120" y="22.5" as="targetPoint"/>
                    </mxGeometry>
                </mxCell>
                <mxCell id="60" value="" style="endArrow=classic;html=1;" edge="1" parent="63">
                    <mxGeometry width="50" height="50" relative="1" as="geometry">
                        <mxPoint x="31.25" y="38.25" as="sourcePoint"/>
                        <mxPoint x="121.25" y="38.25" as="targetPoint"/>
                    </mxGeometry>
                </mxCell>
                <mxCell id="61" value="" style="endArrow=classic;html=1;" edge="1" parent="63">
                    <mxGeometry width="50" height="50" relative="1" as="geometry">
                        <mxPoint x="31.25" y="54" as="sourcePoint"/>
                        <mxPoint x="121.25" y="54" as="targetPoint"/>
                    </mxGeometry>
                </mxCell>
                <mxCell id="62" value="" style="endArrow=classic;html=1;" edge="1" parent="63">
                    <mxGeometry width="50" height="50" relative="1" as="geometry">
                        <mxPoint x="32.5" y="69.75" as="sourcePoint"/>
                        <mxPoint x="120" y="69.75" as="targetPoint"/>
                    </mxGeometry>
                </mxCell>
                <mxCell id="69" value="&lt;font style=&quot;font-size: 18px;&quot;&gt;&lt;b style=&quot;&quot;&gt;Subnet&lt;/b&gt;&lt;/font&gt;" style="text;html=1;align=center;verticalAlign=middle;resizable=0;points=[];autosize=1;strokeColor=none;fillColor=none;" vertex="1" parent="1">
                    <mxGeometry x="500" y="620" width="80" height="40" as="geometry"/>
                </mxCell>
                <mxCell id="82" style="edgeStyle=none;html=1;exitX=1;exitY=0.25;exitDx=0;exitDy=0;entryX=0.379;entryY=0.986;entryDx=0;entryDy=0;entryPerimeter=0;" edge="1" parent="1" source="8" target="7">
                    <mxGeometry relative="1" as="geometry">
                        <Array as="points">
                            <mxPoint x="716" y="815"/>
                        </Array>
                    </mxGeometry>
                </mxCell>
                <mxCell id="83" style="edgeStyle=none;html=1;exitX=1;exitY=0.75;exitDx=0;exitDy=0;entryX=0.654;entryY=1.02;entryDx=0;entryDy=0;entryPerimeter=0;" edge="1" parent="1" source="8" target="7">
                    <mxGeometry relative="1" as="geometry">
                        <Array as="points">
                            <mxPoint x="770" y="865"/>
                        </Array>
                    </mxGeometry>
                </mxCell>
                <mxCell id="84" value="" style="shape=link;html=1;exitX=0.75;exitY=1;exitDx=0;exitDy=0;entryX=0;entryY=0.5;entryDx=0;entryDy=0;" edge="1" parent="1" source="34" target="7">
                    <mxGeometry width="100" relative="1" as="geometry">
                        <mxPoint x="350" y="590" as="sourcePoint"/>
                        <mxPoint x="450" y="590" as="targetPoint"/>
                        <Array as="points">
                            <mxPoint x="618" y="685"/>
                        </Array>
                    </mxGeometry>
                </mxCell>
            </root>
        </mxGraphModel>
    </diagram>
</mxfile>